<?xml version="1.0" encoding="UTF-8" standalone="no"?>
<?xml-stylesheet type="text/css" href="button.css"?><svg
   xmlns:dc="http://purl.org/dc/elements/1.1/"
   xmlns:cc="http://creativecommons.org/ns#"
   xmlns:rdf="http://www.w3.org/1999/02/22-rdf-syntax-ns#"
   xmlns:svg="http://www.w3.org/2000/svg"
   xmlns="http://www.w3.org/2000/svg"
   xmlns:xlink="http://www.w3.org/1999/xlink"
   xmlns:sodipodi="http://sodipodi.sourceforge.net/DTD/sodipodi-0.dtd"
   xmlns:inkscape="http://www.inkscape.org/namespaces/inkscape"
   version="1.1"
   width="48"
   height="48"
   viewBox="0 0 48 48"
   id="canvas"
   onload="init()"
   inkscape:version="0.48.4 r9939"
   sodipodi:docname="close-button.svg">
  <sodipodi:namedview
     pagecolor="#ffffff"
     bordercolor="#666666"
     borderopacity="1"
     objecttolerance="10"
     gridtolerance="10"
     guidetolerance="10"
     inkscape:pageopacity="0"
     inkscape:pageshadow="2"
     inkscape:window-width="2560"
     inkscape:window-height="1576"
     id="namedview7"
     showgrid="true"
     inkscape:zoom="19.666666"
     inkscape:cx="37.512946"
     inkscape:cy="14.535621"
     inkscape:window-x="0"
     inkscape:window-y="24"
     inkscape:window-maximized="1"
     inkscape:current-layer="canvas"
     inkscape:snap-bbox="true">
    <inkscape:grid
       id="grid2987"
       type="xygrid" />
  </sodipodi:namedview>
  <metadata
     id="metadata11">
    <rdf:RDF>
      <cc:Work
         rdf:about="">
        <dc:format>image/svg+xml</dc:format>
        <dc:type
           rdf:resource="http://purl.org/dc/dcmitype/StillImage" />
      </cc:Work>
    </rdf:RDF>
  </metadata>
  <defs
     id="defs9" />
  <script
     xlink:href="./button.js"
     id="button-js" />
  <path
     transform="matrix(1.000000,0.000000,0.000000,1.000000,0.000000,0.000000)"
     d="M47.0 38.0C46.6698853106 38.0106472103 46.6698853106 38.0104765348 46.6689616545 38.0103660976L32.6588315086 23.9999422715L46.6689988016 9.9895003738C46.6689988016 9.9893156426 46.6689988016 9.9892182571 46.670103173 9.9890335259C46.8209181422 9.83812518147 46.9299698002 9.66187301793 46.9998755072 9.47416089212C47.1913725077 8.96110203788 47.0821411384 8.36099682576 46.669560023 7.94842031339L40.0512367861 1.33013468072C39.6386586827 0.91764420892 39.0387330034 0.808500733458 38.5255838105 1.0C38.3379631537 1.06991173344 38.161624153 1.17895516289 38.0106234485 1.32968439835C38.0106234485 1.32986360772 38.0104387173 1.32995677652 38.0102479622 1.33013468072L23.9999431249 15.3406660325L9.9895890928 1.3302207213C9.9894043616 1.33004151193 9.989310992 1.32994834313 9.9891212409 1.32976903337C9.83821370524 1.1790397979 9.66196164864 1.06998964183 9.47434691528 1.00008473541C8.96110314806 0.808499317854 8.36117716757 0.91772322168 7.94859926494 1.3302207213L1.33022211461 7.94861367879C0.91764431238 8.36119159673 0.808502306762 8.96121066787 1.0 9.47427383921C1.06999706864 9.66188998509 1.17904400795 9.83831995243 1.32977183226 9.9891409511C1.32995114202 9.9892282969 1.33004431081 9.9894250758 1.33022211461 9.989609807L15.3406631912 23.9999402635L1.33022211461 38.0104735228C1.33013035138 38.0106642779 1.32995114202 38.0107576475 1.32986500105 38.0109484026C1.17914149383 38.1618497192 1.07008411318 38.3381074046 1.0 38.5257220445C0.808414800387 39.0387849146 0.91763899131 39.6388913315 1.33022211461 40.0514694503L7.94862325992 46.6697768692C8.36128730352 47.0823539839 8.96121318361 47.1914919877 9.4743695047 47.0C9.66198423806 46.9300029288 9.83832805788 46.8209502628 9.9892306741 46.6702286575C9.9893240437 46.6700358945 9.9895127908 46.6699445328 9.9897055538 46.6697537778L24.0000364945 32.6593128841L38.0103895226 46.6697537778C38.0105742538 46.6698471474 38.0107650088 46.6700358945 38.0109497401 46.6701292641C38.1619504445 46.8209442389 38.3381107379 46.9300019248 38.5257303907 46.9999939762C39.0388795836 47.1914919877 39.6389849742 47.0823600078 40.0513833663 46.6697708453L46.6696845158 40.0513760807C47.0822626192 39.6387929421 47.1914990084 39.038693553 47.0 38.5256286749C46.9300029314 38.3380080111 46.8209512734 38.1617573536 46.6701353001 38.010855033Z"
     id="path129"
     inkscape:connector-curvature="0" />
</svg>
