<?xml version="1.0" encoding="UTF-8" standalone="no"?>
<?xml-stylesheet type="text/css" href="button.css"?><svg
   xmlns:dc="http://purl.org/dc/elements/1.1/"
   xmlns:cc="http://creativecommons.org/ns#"
   xmlns:rdf="http://www.w3.org/1999/02/22-rdf-syntax-ns#"
   xmlns:svg="http://www.w3.org/2000/svg"
   xmlns="http://www.w3.org/2000/svg"
   xmlns:xlink="http://www.w3.org/1999/xlink"
   xmlns:sodipodi="http://sodipodi.sourceforge.net/DTD/sodipodi-0.dtd"
   xmlns:inkscape="http://www.inkscape.org/namespaces/inkscape"
   sodipodi:docname="copy.svg"
   inkscape:version="0.48.4 r9939"
   onload="init()"
   id="canvas"
   viewBox="0 0 48 48"
   height="48"
   width="48"
   version="1.1">
  <sodipodi:namedview
     pagecolor="#ffffff"
     bordercolor="#666666"
     borderopacity="1"
     objecttolerance="10"
     gridtolerance="10"
     guidetolerance="10"
     inkscape:pageopacity="0"
     inkscape:pageshadow="2"
     inkscape:window-width="2560"
     inkscape:window-height="1576"
     id="namedview9"
     showgrid="true"
     inkscape:snap-bbox="false"
     inkscape:bbox-paths="true"
     inkscape:zoom="19.666667"
     inkscape:cx="50.262437"
     inkscape:cy="19.875288"
     inkscape:window-x="0"
     inkscape:window-y="24"
     inkscape:window-maximized="1"
     inkscape:current-layer="canvas">
    <inkscape:grid
       id="grid3058"
       type="xygrid" />
  </sodipodi:namedview>
  <metadata
     id="metadata13">
    <rdf:RDF>
      <cc:Work
         rdf:about="">
        <dc:format>image/svg+xml</dc:format>
        <dc:type
           rdf:resource="http://purl.org/dc/dcmitype/StillImage" />
      </cc:Work>
    </rdf:RDF>
  </metadata>
  <defs
     id="defs11" />
  <script
     xlink:href="./button.js"
     id="button-js" />
  <path
     transform="matrix(1.000000,0.000000,0.000000,1.000000,0.000000,0.000000)"
     sodipodi:nodetypes="cccccsssssscsssssccccccscsccc"
     d="M44.0 7.0L30.3571429643 7.0C30.3571429643 3.63004292063 27.7350949579 1.0 24.49999995 1.0C21.2649049421 1.12499816624 18.6428569357 3.75504108688 18.6428569357 7.0L5.46428580357 7.0C4.6560001016 6.87500183375 4.0 7.53300203641 4.0 8.34375223969L4.0 46.5312489941C4.0 47.3419999973 4.6560001016 48.0 5.46428580357 48.0L43.5357139964 48.0C44.3439999984 48.0 45.0 47.3419999973 45.0 46.5312489941L45.0 8.34375223969C45.0 7.53300200215 44.8082859995 7.0 43.9999999976 7.0ZM24.49999995 3.93750132188C26.1175479539 3.93750132188 27.4285709571 5.25252242719 27.4285709571 6.87500183375C27.4285709571 8.49748134031 26.1175479539 9.81250244563 24.49999995 9.81250244563C22.8824519461 9.81250244563 21.5714279429 8.49748134031 21.5714279429 6.87500183375C21.5714279429 5.25252242719 22.8824519461 3.93750132188 24.49999995 3.93750132188ZM42.0714289929 45.0L7.0 45.0L7.0 10.0L13.0 10.0L13.0 14.2187438634C12.999999922 15.3928469976 13.441713923 16.0 14.249998925 16.0L34.749999975 16.0C35.3948469986 15.9999998706 36.0 15.0294938667 36.0 14.2187438634L36.0 10.0L42.0 10.0L42.0 45.0624999881Z"
     id="path5"
     inkscape:connector-curvature="0"
     style="fill:#000000" />
  <path
     transform="matrix(1.000000,0.000000,0.000000,1.000000,0.000000,0.000000)"
     d="M20.0 40.0L10.0 29.362716L12.7164869109 26.739026L19.5289969381 31.884062L32.2835129891 21.0L35.0 23.623691Z"
     id="path7"
     inkscape:connector-curvature="0"
     style="fill:#000000" />
</svg>
