<?xml version="1.0" encoding="UTF-8" standalone="no"?>
<?xml-stylesheet type="text/css" href="button.css"?><svg
   xmlns:dc="http://purl.org/dc/elements/1.1/"
   xmlns:cc="http://creativecommons.org/ns#"
   xmlns:rdf="http://www.w3.org/1999/02/22-rdf-syntax-ns#"
   xmlns:svg="http://www.w3.org/2000/svg"
   xmlns="http://www.w3.org/2000/svg"
   xmlns:xlink="http://www.w3.org/1999/xlink"
   xmlns:sodipodi="http://sodipodi.sourceforge.net/DTD/sodipodi-0.dtd"
   xmlns:inkscape="http://www.inkscape.org/namespaces/inkscape"
   version="1.1"
   width="48"
   height="48"
   viewBox="0 0 48 48"
   id="canvas"
   onload="init()"
   inkscape:version="0.48.4 r9939"
   sodipodi:docname="move-down.svg">
  <sodipodi:namedview
     pagecolor="#ffffff"
     bordercolor="#666666"
     borderopacity="1"
     objecttolerance="10"
     gridtolerance="10"
     guidetolerance="10"
     inkscape:pageopacity="0"
     inkscape:pageshadow="2"
     inkscape:window-width="2560"
     inkscape:window-height="1576"
     id="namedview9"
     showgrid="true"
     inkscape:zoom="9.8333333"
     inkscape:cx="41.8655"
     inkscape:cy="9.346225"
     inkscape:window-x="0"
     inkscape:window-y="24"
     inkscape:window-maximized="1"
     inkscape:current-layer="canvas">
    <inkscape:grid
       id="grid2994"
       type="xygrid" />
  </sodipodi:namedview>
  <metadata
     id="metadata13">
    <rdf:RDF>
      <cc:Work
         rdf:about="">
        <dc:format>image/svg+xml</dc:format>
        <dc:type
           rdf:resource="http://purl.org/dc/dcmitype/StillImage" />
      </cc:Work>
    </rdf:RDF>
  </metadata>
  <defs
     id="defs11" />
  <script
     xlink:href="./button.js"
     id="button-js" />
  <path
     transform="matrix(1.000000,0.000000,0.000000,1.000000,0.000000,0.000000)"
     style="fill:#000000"
     id="path3071"
     d="M22.0 23.0L43.0 23.0L43.0 29.0L22.0 29.0L22.0 23.0Z"
     inkscape:connector-curvature="0" />
  <path
     transform="matrix(1.000000,0.000000,0.000000,1.000000,0.000000,0.000000)"
     style="fill:#000000"
     id="path3073"
     d="M22.0 14.0L37.0 14.0L37.0 20.0L22.0 20.0L22.0 14.0Z"
     inkscape:connector-curvature="0" />
  <path
     transform="matrix(1.000000,0.000000,0.000000,1.000000,0.000000,0.000000)"
     style="fill:#000000"
     id="path3075"
     d="M22.0 5.0L31.0 5.0L31.0 11.0L22.0 11.0L22.0 5.0Z"
     inkscape:connector-curvature="0" />
  <path
     transform="matrix(1.000000,0.000000,0.000000,1.000000,0.000000,0.000000)"
     id="path10"
     d="M13.0 33.0L13.0 9.0L19.0 9.0L19.0 33.0L26.0 33.0L15.5 44.0L5.0 33.0Z"
     style="fill:#000000"
     inkscape:connector-curvature="0" />
</svg>
