<?xml version="1.0" encoding="UTF-8" standalone="no"?>
<?xml-stylesheet type="text/css" href="button.css"?><svg
   xmlns:dc="http://purl.org/dc/elements/1.1/"
   xmlns:cc="http://creativecommons.org/ns#"
   xmlns:rdf="http://www.w3.org/1999/02/22-rdf-syntax-ns#"
   xmlns:svg="http://www.w3.org/2000/svg"
   xmlns="http://www.w3.org/2000/svg"
   xmlns:xlink="http://www.w3.org/1999/xlink"
   xmlns:sodipodi="http://sodipodi.sourceforge.net/DTD/sodipodi-0.dtd"
   xmlns:inkscape="http://www.inkscape.org/namespaces/inkscape"
   version="1.1"
   width="48"
   height="48"
   viewBox="0 0 48 48"
   id="canvas"
   onload="init()"
   inkscape:version="0.48.4 r9939"
   sodipodi:docname="move-top.svg">
  <sodipodi:namedview
     pagecolor="#ffffff"
     bordercolor="#666666"
     borderopacity="1"
     objecttolerance="10"
     gridtolerance="10"
     guidetolerance="10"
     inkscape:pageopacity="0"
     inkscape:pageshadow="2"
     inkscape:window-width="2560"
     inkscape:window-height="1576"
     id="namedview10"
     showgrid="false"
     inkscape:zoom="4.9166667"
     inkscape:cx="24"
     inkscape:cy="24"
     inkscape:window-x="0"
     inkscape:window-y="24"
     inkscape:window-maximized="1"
     inkscape:current-layer="canvas">
    <inkscape:grid
       id="grid2996"
       type="xygrid" />
  </sodipodi:namedview>
  <metadata
     id="metadata14">
    <rdf:RDF>
      <cc:Work
         rdf:about="">
        <dc:format>image/svg+xml</dc:format>
        <dc:type
           rdf:resource="http://purl.org/dc/dcmitype/StillImage" />
      </cc:Work>
    </rdf:RDF>
  </metadata>
  <defs
     id="defs12" />
  <script
     xlink:href="./button.js"
     id="button-js" />
  <path
     transform="matrix(1.000000,0.000000,0.000000,1.000000,0.000000,0.000000)"
     style="fill:#000000"
     id="path3071"
     d="M22.0 28.0L43.0 28.0L43.0 22.0L22.0 22.0L22.0 28.0Z"
     inkscape:connector-curvature="0" />
  <path
     transform="matrix(1.000000,0.000000,0.000000,1.000000,0.000000,0.000000)"
     style="fill:#000000"
     id="path3073"
     d="M22.0 37.0L37.0 37.0L37.0 31.0L22.0 31.0L22.0 37.0Z"
     inkscape:connector-curvature="0" />
  <path
     transform="matrix(1.000000,0.000000,0.000000,1.000000,0.000000,0.000000)"
     style="fill:#000000"
     id="path3075"
     d="M22.0 46.0L31.0 46.0L31.0 40.0L22.0 40.0L22.0 46.0Z"
     inkscape:connector-curvature="0" />
  <path
     transform="matrix(1.000000,0.000000,0.000000,1.000000,0.000000,0.000000)"
     id="path4"
     d="M28.0 6.0L28.0 3.0L4.0 3.0L4.0 6.0L28.0 6.0Z"
     style="fill:#000000"
     inkscape:connector-curvature="0" />
  <path
     transform="matrix(1.000000,0.000000,0.000000,1.000000,0.000000,0.000000)"
     id="path10"
     d="M13.0 18.0L13.0 42.0L19.0 42.0L19.0 18.0L26.0 18.0L15.5 7.0L5.0 18.0Z"
     style="fill:#000000"
     inkscape:connector-curvature="0" />
</svg>
