<?xml version="1.0" encoding="UTF-8" standalone="no"?>
<?xml-stylesheet type="text/css" href="button.css"?><svg
   xmlns:dc="http://purl.org/dc/elements/1.1/"
   xmlns:cc="http://creativecommons.org/ns#"
   xmlns:rdf="http://www.w3.org/1999/02/22-rdf-syntax-ns#"
   xmlns:svg="http://www.w3.org/2000/svg"
   xmlns="http://www.w3.org/2000/svg"
   xmlns:xlink="http://www.w3.org/1999/xlink"
   xmlns:sodipodi="http://sodipodi.sourceforge.net/DTD/sodipodi-0.dtd"
   xmlns:inkscape="http://www.inkscape.org/namespaces/inkscape"
   version="1.1"
   width="48"
   height="48"
   viewBox="0 0 48 48"
   id="canvas"
   onload="init()"
   inkscape:version="0.48.4 r9939"
   sodipodi:docname="new-document.svg">
  <sodipodi:namedview
     pagecolor="#ffffff"
     bordercolor="#666666"
     borderopacity="1"
     objecttolerance="10"
     gridtolerance="10"
     guidetolerance="10"
     inkscape:pageopacity="0"
     inkscape:pageshadow="2"
     inkscape:window-width="2560"
     inkscape:window-height="1576"
     id="namedview7"
     showgrid="true"
     inkscape:zoom="13.906433"
     inkscape:cx="50.512976"
     inkscape:cy="18.701794"
     inkscape:window-x="0"
     inkscape:window-y="24"
     inkscape:window-maximized="1"
     inkscape:current-layer="canvas">
    <inkscape:grid
       type="xygrid"
       id="grid2987" />
  </sodipodi:namedview>
  <metadata
     id="metadata11">
    <rdf:RDF>
      <cc:Work
         rdf:about="">
        <dc:format>image/svg+xml</dc:format>
        <dc:type
           rdf:resource="http://purl.org/dc/dcmitype/StillImage" />
      </cc:Work>
    </rdf:RDF>
  </metadata>
  <defs
     id="defs9" />
  <script
     xlink:href="./button.js"
     id="button-js" />

 
<path
     fill="#000000"
     d="M21.0 6.0L21.0 5.25C21.0 4.012 19.987 3.0 18.75 3.0L11.25 3.0C10.012 3.0 9.0 4.012 9.0 5.25L9.0 6.0L0.0 6.0L0.0 12.0L9.0 12.0L9.0 12.75C9.0 13.987 10.012 15.0 11.25 15.0L18.75 15.0C19.987 15.0 21.0 13.987 21.0 12.75L21.0 12.0L48.0 12.0L48.0 6.0L21.0 6.0ZM12.0 12.0L12.0 6.0L18.0 6.0L18.0 12.0L12.0 12.0ZM39.0 20.25C39.0 19.013 37.987 18.0 36.75 18.0L29.25 18.0C28.013 18.0 27.0 19.013 27.0 20.25L27.0 21.0L0.0 21.0L0.0 27.0L27.0 27.0L27.0 27.75C27.0 28.987 28.013 30.0 29.25 30.0L36.75 30.0C37.987 30.0 39.0 28.987 39.0 27.75L39.0 27.0L48.0 27.0L48.0 21.0L39.0 21.0L39.0 20.25ZM30.0 27.0L30.0 21.0L36.0 21.0L36.0 27.0L30.0 27.0ZM21.0 35.25C21.0 34.013 19.987 33.0 18.75 33.0L11.25 33.0C10.012 33.0 9.0 34.013 9.0 35.25L9.0 36.0L0.0 36.0L0.0 42.0L9.0 42.0L9.0 42.75C9.0 43.987 10.012 45.0 11.25 45.0L18.75 45.0C19.987 45.0 21.0 43.987 21.0 42.75L21.0 42.0L48.0 42.0L48.0 36.0L21.0 36.0L21.0 35.25ZM12.0 42.0L12.0 36.0L18.0 36.0L18.0 42.0L12.0 42.0Z"
     id="path4"
     transform="matrix(1.000000,0.000000,0.000000,1.000000,0.000000,0.000000)" />
</svg>
