<?xml version="1.0" encoding="utf-8"?>
<!-- Generated by IcoMoon.io -->
<!DOCTYPE svg PUBLIC "-//W3C//DTD SVG 1.1//EN" "http://www.w3.org/Graphics/SVG/1.1/DTD/svg11.dtd">
<svg version="1.1" xmlns="http://www.w3.org/2000/svg" xmlns:xlink="http://www.w3.org/1999/xlink" width="48" height="48" viewBox="0 0 48 48">
<path fill="#000000" d="M18 34.5c0-7.089 4.494-13.148 10.783-15.478 0.763-1.713 1.217-3.617 1.217-5.522 0-7.456 0-13.5-9-13.5s-9 6.044-9 13.5c0 4.643 2.695 9.286 6 11.148v2.474c-10.177 0.832-18 5.832-18 11.878h18.624c-0.406-1.431-0.624-2.941-0.624-4.5z"></path>
<path fill="#000000" d="M34.5 21c-7.456 0-13.5 6.044-13.5 13.5s6.044 13.5 13.5 13.5c7.456 0 13.5-6.044 13.5-13.5s-6.044-13.5-13.5-13.5zM42 36h-6v6h-3v-6h-6v-3h6v-6h3v6h6v3z"></path>
</svg>
