<?xml version="1.0" encoding="utf-8"?>
<!-- Generated by IcoMoon.io -->
<!DOCTYPE svg PUBLIC "-//W3C//DTD SVG 1.1//EN" "http://www.w3.org/Graphics/SVG/1.1/DTD/svg11.dtd">
<svg version="1.1" xmlns="http://www.w3.org/2000/svg" xmlns:xlink="http://www.w3.org/1999/xlink" width="48" height="48" viewBox="0 0 48 48">
<path fill="#000000" d="M21 6v-0.75c0-1.238-1.013-2.25-2.25-2.25h-7.5c-1.238 0-2.25 1.012-2.25 2.25v0.75h-9v6h9v0.75c0 1.237 1.012 2.25 2.25 2.25h7.5c1.237 0 2.25-1.013 2.25-2.25v-0.75h27v-6h-27zM12 12v-6h6v6h-6zM39 20.25c0-1.237-1.013-2.25-2.25-2.25h-7.5c-1.237 0-2.25 1.013-2.25 2.25v0.75h-27v6h27v0.75c0 1.237 1.013 2.25 2.25 2.25h7.5c1.237 0 2.25-1.013 2.25-2.25v-0.75h9v-6h-9v-0.75zM30 27v-6h6v6h-6zM21 35.25c0-1.237-1.013-2.25-2.25-2.25h-7.5c-1.238 0-2.25 1.013-2.25 2.25v0.75h-9v6h9v0.75c0 1.237 1.012 2.25 2.25 2.25h7.5c1.237 0 2.25-1.013 2.25-2.25v-0.75h27v-6h-27v-0.75zM12 42v-6h6v6h-6z"></path>
</svg>
