<?xml version="1.0" encoding="UTF-8" standalone="no"?>
<?xml-stylesheet type="text/css" href="button.css"?><svg
   xmlns:dc="http://purl.org/dc/elements/1.1/"
   xmlns:cc="http://creativecommons.org/ns#"
   xmlns:rdf="http://www.w3.org/1999/02/22-rdf-syntax-ns#"
   xmlns:svg="http://www.w3.org/2000/svg"
   xmlns="http://www.w3.org/2000/svg"
   xmlns:xlink="http://www.w3.org/1999/xlink"
   xmlns:sodipodi="http://sodipodi.sourceforge.net/DTD/sodipodi-0.dtd"
   xmlns:inkscape="http://www.inkscape.org/namespaces/inkscape"
   version="1.1"
   width="48"
   height="48"
   viewBox="0 0 48 48"
   id="canvas"
   onload="init()"
   inkscape:version="0.48.4 r9939"
   sodipodi:docname="toggle-grid.svg">
  <sodipodi:namedview
     pagecolor="#ffffff"
     bordercolor="#666666"
     borderopacity="1"
     objecttolerance="10"
     gridtolerance="10"
     guidetolerance="10"
     inkscape:pageopacity="0"
     inkscape:pageshadow="2"
     inkscape:window-width="2560"
     inkscape:window-height="1576"
     id="namedview6"
     showgrid="false"
     inkscape:zoom="4.9166667"
     inkscape:cx="24"
     inkscape:cy="24"
     inkscape:window-x="0"
     inkscape:window-y="24"
     inkscape:window-maximized="1"
     inkscape:current-layer="canvas" />
  <metadata
     id="metadata10">
    <rdf:RDF>
      <cc:Work
         rdf:about="">
        <dc:format>image/svg+xml</dc:format>
        <dc:type
           rdf:resource="http://purl.org/dc/dcmitype/StillImage" />
      </cc:Work>
    </rdf:RDF>
  </metadata>
  <defs
     id="defs8" />
  <script
     xlink:href="./button.js"
     id="button-js" />
  <path
     transform="matrix(1.000000,0.000000,0.000000,1.000000,0.000000,0.000000)"
     d="M0.0 5.0L0.0 44.0L48.0 44.0L48.0 5.0ZM18.0 28.997412L18.0 20.0L30.0 20.0L30.0 28.997412ZM30.0 31.997929L30.0 41.0L18.0 41.0L18.0 31.997929ZM30.0 7.9937882L30.0 17.0L18.0 17.0L18.0 7.9937882ZM15.0 7.9937882L15.0 17.0L3.0 17.0L3.0 7.9937882ZM3.0 20.0L15.0 20.0L15.0 29.0L3.0 29.0ZM33.0 20.0L45.0 20.0L45.0 29.0L33.0 29.0ZM33.0 16.995341L33.0 8.0L45.0 8.0L45.0 16.995341ZM3.0 32.0L15.0 32.0L15.0 41.0L3.0 41.0ZM33.0 40.999482L33.0 32.0L45.0 32.0L45.0 40.999482Z"
     id="path5"
     style="fill:#000000"
     inkscape:connector-curvature="0" />
</svg>
