<?xml version="1.0" encoding="UTF-8" standalone="no"?>
<svg
   xmlns:dc="http://purl.org/dc/elements/1.1/"
   xmlns:cc="http://creativecommons.org/ns#"
   xmlns:rdf="http://www.w3.org/1999/02/22-rdf-syntax-ns#"
   xmlns:svg="http://www.w3.org/2000/svg"
   xmlns="http://www.w3.org/2000/svg"
   xmlns:sodipodi="http://sodipodi.sourceforge.net/DTD/sodipodi-0.dtd"
   xmlns:inkscape="http://www.inkscape.org/namespaces/inkscape"
   width="75"
   height="75"
   viewBox="0 0 75 75"
   id="canvas"
   onload="init()"
   version="1.1"
   inkscape:version="0.48.4 r9939"
   sodipodi:docname="zoom-panel.svg">
  <sodipodi:namedview
     pagecolor="#ffffff"
     bordercolor="#666666"
     borderopacity="1"
     objecttolerance="10"
     gridtolerance="10"
     guidetolerance="10"
     inkscape:pageopacity="0"
     inkscape:pageshadow="2"
     inkscape:window-width="2560"
     inkscape:window-height="1576"
     id="namedview16"
     showgrid="false"
     inkscape:zoom="3.1466667"
     inkscape:cx="37.5"
     inkscape:cy="37.5"
     inkscape:window-x="0"
     inkscape:window-y="24"
     inkscape:window-maximized="1"
     inkscape:current-layer="canvas" />
  <metadata
     id="metadata20">
    <rdf:RDF>
      <cc:Work
         rdf:about="">
        <dc:format>image/svg+xml</dc:format>
        <dc:type
           rdf:resource="http://purl.org/dc/dcmitype/StillImage" />
      </cc:Work>
    </rdf:RDF>
  </metadata>
  <defs
     id="defs18" />
  <style
     id="style3"
     type="text/css">
		.button:hover {
			opacity: 0.5;
		}
	</style>
  <script
     id="script5"
     type="text/javascript">
		var state;

		var inButton;
		var inMouseUpCallback;
		var resetButton;
		var resetMouseUpCallback;
		var outButton;
		var outMouseUpCallback;

		function init()
		{
			state = &quot;enabled&quot;;

			inButton = document.getElementById(&quot;zoom-in-button&quot;);
			resetButton = document.getElementById(&quot;zoom-reset-button&quot;);
			outButton = document.getElementById(&quot;zoom-out-button&quot;);

			inButton.addEventListener(&quot;mouseup&quot;, inMouseup, false);
			resetButton.addEventListener(&quot;mouseup&quot;, resetMouseup, false);
			outButton.addEventListener(&quot;mouseup&quot;, outMouseup, false);
		}

		function inMouseup(evt)
		{
			evt.preventDefault();

			if(typeof inMouseupCallback !== 'undefined') {
				inMouseupCallback();
			}
		}
			
		function resetMouseup(evt)
		{
			evt.preventDefault();

			if(typeof resetMouseupCallback !== 'undefined') {
				resetMouseupCallback();
			}
		}
			
		function outMouseup(evt)
		{
			evt.preventDefault();

			if(typeof outMouseupCallback !== 'undefined') {
				outMouseupCallback();
			}
		}
	
		function disable()
		{
			state = &quot;disabled&quot;;
		}

		function enable()
		{
			state = &quot;enabled&quot;;
		}
	</script>
  <g
     class="button"
     id="zoom-in-button">
    <path
       id="path6"
       d="M29 2h17v16H29z"
       overflow="visible"
       stroke-width="2.109"
       fill="#fff"
       color="#fff" />
    <path
       id="path8"
       d="M44.044 8.996v1.636q0 .332-.244.575-.242.242-.575.242h-4.09v4.086q.002.333-.24.575-.245.244-.578.244h-1.634q-.333 0-.576-.243-.243-.24-.243-.574v-4.09h-4.088q-.332 0-.575-.24-.24-.244-.24-.576V8.997q0-.332.242-.575.244-.24.576-.24h4.09V4.09q0-.33.242-.575.243-.243.575-.243h1.634q.332 0 .574.244.242.243.242.575v4.09h4.09q.332 0 .574.243.243.244.243.576zm3.27 6.95V3.68q0-1.52-1.08-2.6T43.634 0h-12.27q-1.52 0-2.6 1.08t-1.08 2.6v12.267q0 1.52 1.08 2.6t2.6 1.08h12.268q1.52 0 2.6-1.08t1.08-2.6z" />
  </g>
  <g
     class="button"
     id="zoom-reset-button">
    <path
       id="path11"
       d="M8.452 29.37h58.253v16.47H8.452z"
       overflow="visible"
       stroke-width="2.109"
       fill="#fff"
       color="#fff" />
    <path
       id="path13"
       d="M11.21 27.37c-2.98 0-5.23 1.78-5.23 3.868v13.227c0 2.09 2.25 3.682 5.23 3.682h52.603c2.98 0 5.207-1.593 5.207-3.682V31.238c0-2.09-2.227-3.87-5.207-3.87H11.21zm26.478 4.267c1.255 0 2.326.327 3.213.985.89.658 1.34 1.61 1.386 2.86h-2.368c-.044-.707-.35-1.225-.94-1.523-.392-.2-.892-.285-1.476-.285-.65 0-1.16.12-1.547.376-.388.256-.586.62-.586 1.08 0 .42.203.73.585.94.246.137.75.305 1.548.49l2.088.493c.907.213 1.566.488 2.018.845.702.55 1.055 1.34 1.055 2.39 0 1.074-.412 1.986-1.243 2.697-.832.71-2 1.055-3.518 1.055-1.55 0-2.773-.355-3.66-1.055-.89-.7-1.338-1.66-1.338-2.885h2.346c.075.538.22.954.444 1.22.408.484 1.12.727 2.11.727.593 0 1.062-.085 1.43-.21.703-.247 1.057-.697 1.057-1.363 0-.388-.172-.678-.515-.89-.344-.208-.896-.404-1.642-.564l-1.266-.28c-1.253-.278-2.11-.567-2.58-.892-.793-.542-1.196-1.4-1.196-2.556 0-1.054.398-1.93 1.175-2.626.776-.7 1.92-1.033 3.424-1.033zm-26.877.328h5.63c.806.016 1.42.12 1.855.305.433.187.8.46 1.102.82.25.3.464.624.61.986.145.362.21.78.21 1.243 0 .556-.14 1.122-.42 1.662-.284.54-.76.902-1.41 1.126.545.217.948.535 1.174.937.226.402.328 1.027.328 1.853v.774c0 .538.027.91.07 1.103.065.303.208.536.446.68v.28h-2.72c-.075-.26-.11-.472-.14-.632-.065-.33-.113-.662-.118-1.008l-.024-1.103c-.01-.75-.123-1.25-.373-1.5s-.723-.376-1.408-.376H13.23v4.62h-2.42v-11.77zm11.82 0h8.657v2.088H25.05v2.51h5.72v2.04H25.05v3.025h6.52v2.11H22.63V31.965zm21.837 0h8.63v2.088H46.86v2.51h5.722v2.04H46.86v3.025h6.52v2.11h-8.912V31.965zm9.85 0h9.545v2.088h-3.517v9.685H57.86v-9.685h-3.542v-2.088zm-41.088 2.04v3.167h2.65c.525 0 .91-.06 1.172-.188.466-.223.704-.653.704-1.313 0-.71-.23-1.206-.68-1.45-.253-.14-.643-.21-1.15-.21H13.23z" />
  </g>
  <g
     class="button"
     id="zoom-out-button">
    <path
       id="path16"
       d="M29 57h17v16H29z"
       overflow="visible"
       stroke-width="2.109"
       fill="#fff"
       color="#fff" />
    <path
       id="path18"
       d="M44.044 64.368v1.636q0 .332-.244.575-.242.24-.575.24h-11.45q-.33 0-.573-.243-.244-.244-.244-.576v-1.635q0-.332.244-.575.242-.24.574-.24h11.45q.333 0 .575.242.245.243.245.575zm3.27 6.952V59.053q0-1.52-1.08-2.6t-2.6-1.08H31.367q-1.52 0-2.6 1.08t-1.08 2.6V71.32q0 1.52 1.08 2.6t2.6 1.08h12.267q1.52 0 2.6-1.08t1.08-2.6z" />
  </g>
</svg>
