<svg xmlns="http://www.w3.org/2000/svg" width="75" height="75" viewBox="0 0 75 75" id="svg2">
    <style>
	<![CDATA[
			#zoom-in-button:hover {
				opacity: 0.5;
			}
	]]>
    </style>
    <g id="zoom-in-button" class="zoom-in-button">
        <path color="#fff" fill="#fff" stroke-width="2.109" overflow="visible" d="M29 2h17v16H29z"/>
        <path d="M44.044 8.996v1.636q0 .332-.244.575-.242.242-.575.242h-4.09v4.087q.002.333-.24.575-.245.243-.578.243h-1.634q-.333 0-.576-.243-.243-.242-.243-.575v-4.09h-4.088q-.332 0-.575-.24-.242-.244-.242-.576V8.997q0-.332.243-.575.244-.24.576-.24h4.09V4.09q0-.33.242-.575.243-.243.575-.243h1.634q.333 0 .575.244.242.243.242.575v4.09h4.09q.332 0 .574.242.243.244.243.576zm3.27 6.95V3.68q0-1.52-1.08-2.6T43.634 0H31.365q-1.52 0-2.6 1.08t-1.08 2.6v12.267q0 1.52 1.08 2.6t2.6 1.08h12.267q1.52 0 2.6-1.08t1.08-2.6z"/>
    </g>
    <g id="zoom-reset-button" class="zoom-reset-button">
        <path color="#fff" fill="#fff" stroke-width="2.109" overflow="visible" d="M8.452 29.37h58.253v16.47H8.452z"/>
        <path d="M11.21 27.37c-2.98 0-5.23 1.78-5.23 3.868v13.227c0 2.09 2.25 3.682 5.23 3.682h52.603c2.98 0 5.207-1.593 5.207-3.682V31.238c0-2.09-2.227-3.87-5.207-3.87H11.21zm26.478 4.267c1.255 0 2.326.327 3.213.985.888.658 1.34 1.61 1.385 2.86h-2.368c-.044-.707-.35-1.225-.94-1.523-.392-.2-.892-.284-1.476-.284-.65 0-1.16.12-1.547.376-.388.255-.586.62-.586 1.078 0 .422.204.732.586.94.246.138.75.306 1.548.492l2.088.492c.906.213 1.565.488 2.017.845.702.55 1.055 1.34 1.055 2.39 0 1.074-.412 1.986-1.243 2.697-.832.71-2 1.055-3.518 1.055-1.55 0-2.773-.355-3.66-1.055-.89-.7-1.338-1.66-1.338-2.885h2.346c.075.538.22.954.444 1.22.408.484 1.12.727 2.11.727.593 0 1.062-.085 1.43-.21.703-.247 1.057-.697 1.057-1.363 0-.388-.173-.678-.516-.89-.344-.208-.896-.404-1.642-.564l-1.266-.28c-1.253-.278-2.11-.567-2.58-.892-.793-.542-1.196-1.4-1.196-2.556 0-1.054.397-1.93 1.174-2.626.776-.7 1.92-1.033 3.424-1.033zm-26.877.328h5.63c.805.016 1.42.12 1.854.305.433.187.8.46 1.102.82.25.3.464.624.61.986.145.362.21.78.21 1.243 0 .557-.14 1.123-.42 1.663-.284.54-.76.902-1.41 1.126.545.217.948.535 1.174.937.225.402.327 1.027.327 1.853v.774c0 .538.027.91.07 1.103.065.303.208.536.446.68v.28h-2.72c-.075-.26-.11-.472-.14-.632-.065-.33-.113-.662-.118-1.008l-.024-1.103c-.01-.75-.123-1.25-.373-1.5s-.722-.376-1.407-.376h-2.393v4.62H10.81V31.965zm11.82 0h8.656v2.088h-6.238v2.51h5.722v2.04h-5.723v3.025h6.52v2.11H22.63V31.965zm21.836 0h8.63v2.088h-6.238v2.51h5.723v2.04H46.86v3.025h6.52v2.11h-8.912V31.965zm9.85 0h9.545v2.088h-3.517v9.685h-2.485v-9.685h-3.542v-2.088zm-41.088 2.04v3.167h2.65c.526 0 .91-.06 1.173-.188.466-.223.704-.653.704-1.313 0-.712-.23-1.207-.68-1.452-.253-.14-.643-.21-1.15-.21h-2.696z"/>
    </g>
    <g id="zoom-out-button" class="zoom-out-button">
        <path color="#fff" fill="#fff" stroke-width="2.109" overflow="visible" d="M29 57h17v16H29z"/>
        <path d="M44.044 64.368v1.636q0 .332-.244.575-.242.24-.575.24h-11.45q-.33 0-.573-.242-.244-.244-.244-.576v-1.636q0-.332.244-.575.242-.24.574-.24h11.45q.333 0 .575.242.244.243.244.575zm3.27 6.952V59.053q0-1.52-1.08-2.6t-2.6-1.08H31.367q-1.52 0-2.6 1.08t-1.08 2.6V71.32q0 1.52 1.08 2.6t2.6 1.08h12.267q1.52 0 2.6-1.08t1.08-2.6z"/>
    </g>
</svg>
