<svg xmlns="http://www.w3.org/2000/svg" width="100px" height="100px" viewBox="0 0 100 100">
	<g>
		<g>
        		<path d="m 0,64.2 0,1.88 c 0,9.4 9.06,18.92 20.22,18.92 l 59.56,0 c 11.18,0 20.22,-9.52 20.22,-18.92 l 0,-1.88 c 0,-8.75 -7.82,-19.74 -17.92,-20.71 -0.23,-7.81 -5.92,-14.06 -12.93,-14.06 -2.74,0 -5.24,0.94 -7.34,2.56 -4,-10 -12.91,-16.99 -23.31,-16.99 -14.13,0 -25.57,12.84 -25.57,28.69 0,0.29 0.03,0.57 0.03,0.83 -7.57,2.47 -12.96,12.44 -12.96,19.68 z m 32.14,8.67 -1.44,-6.45 -6.88,0 -1.52,6.45 -3.92,0 6.68,-26.36 4.81,0 6.17,26.36 -3.9,0 z m 22.81,0 -4.36,0 -3.01,-19.86 -0.07,0 -2.99,19.86 -4.35,0 -4.53,-26.36 3.79,0 3.09,20.48 0.05,0 3.09,-20.48 3.97,0 3.14,20.59 0.08,0 3.06,-20.59 3.72,0 -4.68,26.36 z m 13.74,0.51 c -5.82,0 -7.14,-4.35 -7.14,-8.04 l 0,-0.62 3.75,0 0,0.65 c 0,3.21 1.27,4.83 3.87,4.83 2.36,0 3.55,-1.88 3.55,-3.84 0,-2.78 -1.24,-3.97 -3.37,-4.68 l -2.56,-1 c -3.41,-1.48 -4.91,-3.46 -4.91,-7.24 0,-4.8 2.91,-7.47 7.32,-7.47 6.02,0 6.63,4.2 6.63,6.96 l 0,0.56 -3.75,0 0,-0.54 c 0,-2.41 -0.96,-3.8 -3.29,-3.8 -1.62,0 -3.16,0.99 -3.16,3.8 0,2.25 1.04,3.39 3.54,4.46 l 2.53,1.06 c 3.32,1.3 4.76,3.35 4.76,6.96 0,5.62 -3.01,7.95 -7.77,7.95 z" style="fill:#f7981f;stroke:none" />
        		<path d="m 27.31,50.06 -2.81,12.98 5.57,0 -2.71,-12.98 z" style="fill:#f7981f;stroke:none" />
			<path d="m 25.06,46.51 -6.68,26.36 3.92,0 1.52,-6.45 6.88,0 1.44,6.45 3.93,0 -6.2,-26.36 -4.81,0 z m -0.56,16.53 2.81,-12.98 0.05,0 2.71,12.98 -5.57,0 z" style="fill:#ffffff;stroke:none" />
			<path d="m 52.85,67.1 -0.08,0 -3.16,-20.59 -3.95,0 -3.09,20.48 -0.05,0 -3.11,-20.48 -3.77,0 4.53,26.36 4.35,0 2.99,-19.86 0.07,0 3.01,19.86 4.36,0 4.68,-26.36 -3.72,0 z" style="fill:#ffffff;stroke:none" />
			<path d="m 71.7,58.47 -2.53,-1.03 c -2.5,-1.08 -3.52,-2.21 -3.52,-4.49 0,-2.78 1.55,-3.8 3.14,-3.8 2.36,0 3.29,1.42 3.29,3.8 l 0,0.57 3.77,0 0,-0.59 c 0,-2.73 -0.63,-6.94 -6.65,-6.94 -4.41,0 -7.32,2.65 -7.32,7.45 0,3.78 1.5,5.76 4.91,7.24 l 2.56,1 c 2.13,0.71 3.37,1.93 3.37,4.68 0,1.96 -1.19,3.87 -3.55,3.87 -2.6,0 -3.84,-1.65 -3.84,-4.86 l 0,-0.65 -3.78,0 0,0.62 c 0,3.69 1.35,8.04 7.17,8.04 4.73,0 7.74,-2.3 7.74,-7.93 0,-3.63 -1.44,-5.65 -4.76,-6.98 z" style="fill:#ffffff;stroke:none" />
		</g>
	</g>
</svg>
